<?xml version="1.0" encoding="UTF-8" standalone="no"?>
<svg
   xmlns:dc="http://purl.org/dc/elements/1.1/"
   xmlns:cc="http://creativecommons.org/ns#"
   xmlns:rdf="http://www.w3.org/1999/02/22-rdf-syntax-ns#"
   xmlns:svg="http://www.w3.org/2000/svg"
   xmlns="http://www.w3.org/2000/svg"
   xmlns:sodipodi="http://sodipodi.sourceforge.net/DTD/sodipodi-0.dtd"
   xmlns:inkscape="http://www.inkscape.org/namespaces/inkscape"
   width="72.003"
   height="96.986"
   viewBox="7.154 4.787 72.003 96.986"
   version="1.1"
   id="svg21"
   sodipodi:docname="swipe.svg"
   inkscape:version="0.92.5 (2060ec1f9f, 2020-04-08)">
  <metadata
     id="metadata25">
    <rdf:RDF>
      <cc:Work
         rdf:about="">
        <dc:format>image/svg+xml</dc:format>
        <dc:type
           rdf:resource="http://purl.org/dc/dcmitype/StillImage" />
      </cc:Work>
    </rdf:RDF>
  </metadata>
  <sodipodi:namedview
     pagecolor="#ffffff"
     bordercolor="#666666"
     borderopacity="1"
     objecttolerance="10"
     gridtolerance="10"
     guidetolerance="10"
     inkscape:pageopacity="0"
     inkscape:pageshadow="2"
     inkscape:window-width="2488"
     inkscape:window-height="1376"
     id="namedview23"
     showgrid="false"
     inkscape:zoom="5.6568542"
     inkscape:cx="36.001499"
     inkscape:cy="48.493"
     inkscape:window-x="72"
     inkscape:window-y="27"
     inkscape:window-maximized="1"
     inkscape:current-layer="svg21" />
  <defs
     id="defs5">
    <clipPath
       id="clipPath84">
      <path
         d="m0,612h792v-612h-792v612z"
         id="path2" />
    </clipPath>
  </defs>
  <g
     id="g877"
     transform="matrix(1.5826594,0,0,1.4871187,25.10226,-25.594881)"
     style="fill:#ffffff;fill-opacity:1">
    <path
       style="fill:#ffffff;stroke-width:0.26233107;fill-opacity:1"
       d="m 7.2559068,70.535991 c -6.76367301,-1.773337 -12.28393,-7.317822 -14.011651,-14.073143 -0.700952,-2.740696 -0.700952,-6.900894 0,-9.641589 1.741103,-6.807649 7.28322299,-12.338188 14.114941,-14.085448 2.6997112,-0.690469 6.8798712,-0.686057 9.6019602,0.01014 6.807648,1.741103 12.338188,7.283223 14.085446,14.114941 0.685723,2.681159 0.685723,6.881169 0,9.562329 -1.747258,6.831718 -7.277798,12.373837 -14.085446,14.114941 -2.679243,0.685235 -7.0871952,0.684251 -9.7052502,-0.0021 z m 7.8851862,-0.937923 c 3.299566,-0.418942 7.205809,-2.436022 9.862536,-5.092748 7.02967,-7.02967 7.101331,-18.504593 0.159715,-25.575363 -7.101433,-7.23356 -18.7543512,-7.306953 -25.89819121,-0.163113 -4.97593899,4.975938 -6.62917399,12.492808 -4.20720399,19.129163 1.889326,5.176875 5.77695999,9.009225 11.079526,10.921967 2.899704,1.04598 5.2830962,1.252484 9.0036182,0.780094 z M 10.629147,56.295695 c -2.4873202,-2.490371 -4.5224002,-4.70513 -4.5224002,-4.921689 0,-0.552344 8.4307932,-8.913541 8.9877352,-8.913541 1.052139,0 0.251675,1.129089 -3.347617,4.721959 -2.0920902,2.088358 -3.8038012,3.977043 -3.8038012,4.197078 0,0.220036 1.82976,2.226967 4.0661322,4.459848 3.847158,3.841151 4.673785,4.98429 3.60424,4.98429 -0.254039,0 -2.496969,-2.037575 -4.984289,-4.527945 z"
       id="path879"
       inkscape:connector-curvature="0" />
  </g>
  <path
     style="opacity:1;fill:#ffffff;fill-opacity:0;stroke:none;stroke-width:0;stroke-linecap:butt;stroke-linejoin:miter;stroke-miterlimit:4;stroke-dasharray:none;stroke-dashoffset:0;stroke-opacity:1;paint-order:stroke fill markers"
     d=""
     id="path843"
     inkscape:connector-curvature="0"
     transform="translate(7.154,4.787)" />
  <path
     style="opacity:1;fill:#ffffff;fill-opacity:0;stroke:none;stroke-width:0;stroke-linecap:butt;stroke-linejoin:miter;stroke-miterlimit:4;stroke-dasharray:none;stroke-dashoffset:0;stroke-opacity:1;paint-order:stroke fill markers"
     d=""
     id="path845"
     inkscape:connector-curvature="0"
     transform="translate(7.154,4.787)" />
</svg>
